<?xml version="1.0" encoding="UTF-8" standalone="no"?>
<!-- Created with Inkscape (http://www.inkscape.org/) -->

<svg
   width="132.29167mm"
   height="132.29166mm"
   viewBox="0 0 132.29167 132.29166"
   version="1.1"
   id="svg5"
   xml:space="preserve"
   inkscape:version="1.2.1 (9c6d41e410, 2022-07-14)"
   sodipodi:docname="COLT_BLK_LOGO.svg"
   xmlns:inkscape="http://www.inkscape.org/namespaces/inkscape"
   xmlns:sodipodi="http://sodipodi.sourceforge.net/DTD/sodipodi-0.dtd"
   xmlns="http://www.w3.org/2000/svg"
   xmlns:svg="http://www.w3.org/2000/svg"><sodipodi:namedview
     id="namedview7"
     pagecolor="#ffffff"
     bordercolor="#000000"
     borderopacity="0.25"
     inkscape:showpageshadow="2"
     inkscape:pageopacity="0.0"
     inkscape:pagecheckerboard="0"
     inkscape:deskcolor="#d1d1d1"
     inkscape:document-units="mm"
     showgrid="false"
     inkscape:zoom="1.0444209"
     inkscape:cx="154.15241"
     inkscape:cy="157.98228"
     inkscape:window-width="1920"
     inkscape:window-height="1009"
     inkscape:window-x="-8"
     inkscape:window-y="-8"
     inkscape:window-maximized="1"
     inkscape:current-layer="layer1" /><defs
     id="defs2" /><g
     inkscape:label="Layer 1"
     inkscape:groupmode="layer"
     id="layer1"
     transform="translate(-42.503799,-14.103002)"><path
       style="fill:#000000;stroke-width:0.353972"
       d="M 105.60567,146.08081 C 78.817309,143.27483 54.786022,124.17498 46.401637,99.025987 41.420721,84.085721 41.220741,70.668266 45.760155,55.988917 50.424779,40.904698 61.04064,26.96328 74.400986,18.375959 c 3.730812,-2.397978 7.649306,-4.505452 7.906335,-4.252259 0.112242,0.110608 -0.284397,0.808585 -0.881418,1.551149 -2.815592,3.501967 -7.568099,12.112565 -9.452883,17.126749 -5.16634,13.744261 -5.737336,29.130643 -1.616686,43.56405 2.335061,8.179039 6.998599,16.999077 12.685804,23.992392 9.783016,12.02975 23.025762,20.45748 37.900522,24.12005 6.66161,1.64026 10.4562,2.08366 17.83205,2.08366 7.38277,0 11.14471,-0.44027 17.8829,-2.09285 3.8225,-0.93749 9.05317,-2.68432 11.07999,-3.70028 3.18993,-1.59897 2.49937,-0.38096 -2.69439,4.75231 -11.92292,11.78409 -26.35757,18.71199 -42.85231,20.56693 -3.66456,0.41211 -12.61989,0.4083 -16.58523,-0.007 z m 9.09577,-36.56487 C 99.180977,107.83421 85.731161,96.37988 81.838238,81.528509 80.726526,77.287352 80.344746,70.764614 80.97654,66.806338 c 0.532675,-3.337301 1.804961,-7.831173 2.217133,-7.831173 0.165917,0 0.301668,2.037776 0.301668,4.528382 0,21.196922 14.006015,37.758123 34.772499,41.116243 4.22943,0.68393 7.93977,0.79027 13.49688,0.38684 3.10793,-0.22563 5.74131,-0.32106 5.85195,-0.21206 0.32805,0.32314 -4.91774,2.56831 -8.15016,3.48822 -2.73245,0.77763 -9.19636,1.70057 -11.12349,1.58825 -0.43364,-0.0252 -2.07237,-0.18506 -3.64158,-0.3551 z m 39.05219,-20.847157 c 0,-0.09282 0.58714,-1.072984 1.30474,-2.178048 1.86461,-2.871389 3.84182,-7.169817 4.98147,-10.829663 0.92715,-2.97743 0.98399,-3.545585 0.98399,-9.835115 0,-6.273874 -0.0586,-6.8631 -0.97426,-9.802051 -3.91923,-12.578702 -13.07451,-21.923473 -25.12481,-25.644823 -8.32321,-2.570357 -18.83432,-2.202003 -26.20791,0.918437 -0.93771,0.396823 -1.81393,0.614097 -1.94717,0.48284 -0.34915,-0.343936 5.15873,-5.499096 7.6708,-7.179577 3.79572,-2.539193 8.50579,-4.683274 12.67011,-5.767611 3.95312,-1.029338 14.00888,-1.122234 18.00257,-0.166312 11.56171,2.767381 21.30447,10.512762 26.08461,20.736972 2.69098,5.755701 3.5977,9.802783 3.5977,16.058095 0,6.528048 -1.02903,10.815229 -4.00551,16.687845 -1.98202,3.910554 -3.42596,5.958063 -6.23375,8.839424 -2.89895,2.974909 -5.69416,5.221844 -8.3773,6.73409 -1.94048,1.09367 -2.42528,1.282674 -2.42528,0.945497 z"
       id="path802" /></g></svg>
