<?xml version="1.0" encoding="UTF-8" standalone="no"?>
<!-- Created with Inkscape (http://www.inkscape.org/) -->

<svg
   width="3.4879065mm"
   height="5.54249mm"
   viewBox="0 0 3.4879065 5.54249"
   version="1.1"
   id="svg10046"
   inkscape:version="1.2.1 (9c6d41e410, 2022-07-14)"
   sodipodi:docname="Dollar-Icon.svg"
   xmlns:inkscape="http://www.inkscape.org/namespaces/inkscape"
   xmlns:sodipodi="http://sodipodi.sourceforge.net/DTD/sodipodi-0.dtd"
   xmlns="http://www.w3.org/2000/svg"
   xmlns:svg="http://www.w3.org/2000/svg">
  <sodipodi:namedview
     id="namedview10048"
     pagecolor="#ffffff"
     bordercolor="#000000"
     borderopacity="0.25"
     inkscape:showpageshadow="2"
     inkscape:pageopacity="0.0"
     inkscape:pagecheckerboard="0"
     inkscape:deskcolor="#d1d1d1"
     inkscape:document-units="mm"
     showgrid="false"
     inkscape:zoom="0.73851712"
     inkscape:cx="-649.27405"
     inkscape:cy="55.516655"
     inkscape:window-width="1920"
     inkscape:window-height="1009"
     inkscape:window-x="-8"
     inkscape:window-y="-8"
     inkscape:window-maximized="1"
     inkscape:current-layer="layer1" />
  <defs
     id="defs10043" />
  <g
     inkscape:label="Layer 1"
     inkscape:groupmode="layer"
     id="layer1"
     transform="translate(-253.69754,-134.08521)">
    <path
       style="fill:#ffffff;stroke-width:0.00925167"
       d="m 255.17186,139.30849 v -0.31901 l -0.0208,-0.004 c -0.0115,-0.002 -0.0666,-0.0108 -0.12258,-0.0191 -0.56478,-0.0838 -0.98628,-0.36289 -1.20219,-0.79593 -0.0505,-0.10135 -0.14029,-0.35001 -0.12752,-0.35327 0.12777,-0.0325 0.91169,-0.2066 0.91512,-0.20317 0.002,0.002 0.0169,0.0392 0.0316,0.0811 0.12203,0.34866 0.43758,0.52461 0.90574,0.50504 0.29085,-0.0122 0.4665,-0.0935 0.57561,-0.26662 0.0509,-0.0808 0.0581,-0.23859 0.0151,-0.33205 -0.0311,-0.0675 -0.0657,-0.10694 -0.13129,-0.14933 -0.0965,-0.0624 -0.28875,-0.12512 -0.54733,-0.17869 -0.58398,-0.12097 -0.95433,-0.26351 -1.18555,-0.45629 -0.074,-0.0617 -0.16497,-0.18376 -0.22838,-0.30648 -0.0926,-0.17923 -0.12946,-0.33844 -0.12972,-0.56063 -1.6e-4,-0.1482 0.01,-0.22546 0.046,-0.36544 0.0295,-0.11338 0.12311,-0.30496 0.19886,-0.40708 0.20457,-0.27579 0.51829,-0.47017 0.86689,-0.53713 0.0544,-0.0104 0.10822,-0.0209 0.11967,-0.0232 l 0.0208,-0.005 v -0.2635 -0.2635 h 0.2683 0.2683 v 0.26368 0.26366 h 0.0312 c 0.0172,0 0.0765,0.008 0.13184,0.0176 0.37005,0.0648 0.62819,0.18994 0.85026,0.41221 0.14086,0.14099 0.23292,0.28151 0.31543,0.48147 l 0.0305,0.074 -0.42234,0.14092 c -0.23228,0.0775 -0.4229,0.13995 -0.42358,0.13877 -7.1e-4,-0.002 -0.0105,-0.0271 -0.0219,-0.0576 -0.0435,-0.11673 -0.14723,-0.25103 -0.24674,-0.3195 -0.13971,-0.0961 -0.34563,-0.13938 -0.57119,-0.12 -0.16932,0.0146 -0.25217,0.0379 -0.34456,0.097 -0.14576,0.0933 -0.1868,0.3221 -0.0859,0.47926 0.0763,0.11888 0.22259,0.18342 0.5812,0.25634 0.50158,0.10201 0.86208,0.21155 1.0408,0.31626 0.30186,0.17684 0.52995,0.49315 0.59092,0.81949 0.0569,0.3046 -0.003,0.63419 -0.16432,0.90542 -0.0702,0.11793 -0.13078,0.19481 -0.23629,0.29977 -0.15354,0.15275 -0.33827,0.26155 -0.57103,0.33632 -0.10714,0.0344 -0.29102,0.0745 -0.38716,0.0844 -0.0305,0.003 -0.0649,0.008 -0.0763,0.01 l -0.0208,0.005 v 0.31901 0.31901 h -0.2683 -0.2683 z"
       id="path5093-1-7-7" />
  </g>
</svg>
