<?xml version="1.0" encoding="UTF-8" standalone="no"?>
<!-- Created with Inkscape (http://www.inkscape.org/) -->

<svg
   width="4.7101684mm"
   height="4.7079697mm"
   viewBox="0 0 4.7101684 4.7079697"
   version="1.1"
   id="svg10046"
   inkscape:version="1.2.1 (9c6d41e410, 2022-07-14)"
   sodipodi:docname="Percentage-Icon.svg"
   xmlns:inkscape="http://www.inkscape.org/namespaces/inkscape"
   xmlns:sodipodi="http://sodipodi.sourceforge.net/DTD/sodipodi-0.dtd"
   xmlns="http://www.w3.org/2000/svg"
   xmlns:svg="http://www.w3.org/2000/svg">
  <sodipodi:namedview
     id="namedview10048"
     pagecolor="#ffffff"
     bordercolor="#000000"
     borderopacity="0.25"
     inkscape:showpageshadow="2"
     inkscape:pageopacity="0.0"
     inkscape:pagecheckerboard="0"
     inkscape:deskcolor="#d1d1d1"
     inkscape:document-units="mm"
     showgrid="false"
     inkscape:zoom="0.73851712"
     inkscape:cx="-64.318076"
     inkscape:cy="-31.143489"
     inkscape:window-width="1920"
     inkscape:window-height="1009"
     inkscape:window-x="-8"
     inkscape:window-y="-8"
     inkscape:window-maximized="1"
     inkscape:current-layer="layer1" />
  <defs
     id="defs10043" />
  <g
     inkscape:label="Layer 1"
     inkscape:groupmode="layer"
     id="layer1"
     transform="translate(-99.080691,-157.16789)">
    <path
       style="fill:#ffffff;stroke-width:0.00589573"
       d="m 102.57485,161.87387 c -0.30967,-0.0219 -0.58986,-0.16517 -0.78907,-0.40353 -0.28512,-0.34113 -0.34594,-0.82105 -0.15417,-1.21665 0.1375,-0.28365 0.37349,-0.49169 0.66908,-0.58981 0.23316,-0.0774 0.4835,-0.077 0.71733,8.8e-4 0.54756,0.18323 0.86944,0.75379 0.74689,1.32392 -0.062,0.28846 -0.25193,0.55679 -0.50534,0.71396 -0.10028,0.0622 -0.22388,0.11537 -0.32803,0.14111 -0.10413,0.0257 -0.24577,0.0376 -0.35669,0.0297 z m 0.15329,-0.4833 c 0.12203,-0.0158 0.24478,-0.0666 0.33412,-0.13817 0.30554,-0.24492 0.32984,-0.6964 0.0524,-0.97324 -0.32146,-0.32075 -0.8582,-0.22174 -1.05314,0.19425 -0.0969,0.20684 -0.0691,0.46843 0.0697,0.65549 0.0651,0.0877 0.16613,0.1688 0.26455,0.21233 0.0983,0.0435 0.22841,0.0628 0.33235,0.0494 z m -3.26185,0.27715 c -0.0658,-0.0167 -0.12922,-0.0699 -0.15904,-0.13358 -0.0338,-0.0721 -0.0274,-0.16649 0.0153,-0.22949 0.0249,-0.0367 3.87364,-3.88443 3.90205,-3.90108 0.12689,-0.0744 0.29334,-0.0174 0.34772,0.11892 0.0104,0.0261 0.0132,0.0451 0.0134,0.0898 1.8e-4,0.0549 -3.9e-4,0.0582 -0.0234,0.10177 -0.0226,0.0433 -0.10064,0.12214 -1.9589,1.98144 -1.82971,1.83071 -1.93747,1.93742 -1.97464,1.95515 -0.0328,0.0157 -0.0476,0.0191 -0.0899,0.0207 -0.0278,8.8e-4 -0.0605,-7.8e-4 -0.0727,-0.004 z m 0.65888,-2.2342 c -0.33104,-0.03 -0.61399,-0.18628 -0.81779,-0.4518 -0.0568,-0.074 -0.10434,-0.15912 -0.1441,-0.25803 -0.0639,-0.15896 -0.0939,-0.35705 -0.0787,-0.51958 0.0421,-0.45017 0.3388,-0.82907 0.76407,-0.9757 0.31413,-0.10832 0.67869,-0.0694 0.9554,0.10211 0.23461,0.14539 0.40486,0.35932 0.48877,0.61417 0.0775,0.23529 0.0784,0.48036 0.004,0.71012 -0.12083,0.3676 -0.42409,0.65127 -0.79809,0.74653 -0.11176,0.0285 -0.26622,0.0418 -0.37253,0.0322 z m 0.16229,-0.48382 c 0.0598,-0.007 0.14482,-0.0295 0.19043,-0.0497 0.0654,-0.0289 0.1404,-0.0807 0.19575,-0.1352 0.21811,-0.21463 0.25741,-0.54007 0.0972,-0.80516 -0.0808,-0.13374 -0.22477,-0.2423 -0.3793,-0.28603 -0.34529,-0.0977 -0.71487,0.11374 -0.80584,0.46102 -0.0483,0.18451 -0.0144,0.37665 0.0956,0.54047 0.0545,0.0812 0.17194,0.17917 0.26551,0.22145 0.0692,0.0312 0.18397,0.0574 0.25811,0.0587 0.0179,3.2e-4 0.0551,-0.003 0.0825,-0.005 z"
       id="path5386-8-3" />
  </g>
</svg>
