<?xml version="1.0" encoding="UTF-8" standalone="no"?>
<!-- Created with Inkscape (http://www.inkscape.org/) -->

<svg
   width="5.6245742mm"
   height="5.630847mm"
   viewBox="0 0 5.6245743 5.630847"
   version="1.1"
   id="svg10046"
   inkscape:version="1.2.1 (9c6d41e410, 2022-07-14)"
   sodipodi:docname="Term-Icon.svg"
   xmlns:inkscape="http://www.inkscape.org/namespaces/inkscape"
   xmlns:sodipodi="http://sodipodi.sourceforge.net/DTD/sodipodi-0.dtd"
   xmlns="http://www.w3.org/2000/svg"
   xmlns:svg="http://www.w3.org/2000/svg">
  <sodipodi:namedview
     id="namedview10048"
     pagecolor="#ffffff"
     bordercolor="#000000"
     borderopacity="0.25"
     inkscape:showpageshadow="2"
     inkscape:pageopacity="0.0"
     inkscape:pagecheckerboard="0"
     inkscape:deskcolor="#d1d1d1"
     inkscape:document-units="mm"
     showgrid="false"
     inkscape:zoom="0.73851712"
     inkscape:cx="75.150594"
     inkscape:cy="1.3540648"
     inkscape:window-width="1920"
     inkscape:window-height="1009"
     inkscape:window-x="-8"
     inkscape:window-y="-8"
     inkscape:window-maximized="1"
     inkscape:current-layer="layer1" />
  <defs
     id="defs10043" />
  <g
     inkscape:label="Layer 1"
     inkscape:groupmode="layer"
     id="layer1"
     transform="translate(-62.31151,-148.4711)">
    <path
       style="fill:#ffffff;stroke-width:0.0183868"
       d="m 64.82186,154.08405 c -0.0907,-0.009 -0.16767,-0.0196 -0.17102,-0.023 -0.003,-0.003 0.0139,-0.10841 0.0383,-0.23345 0.0388,-0.19911 0.0487,-0.2268 0.0791,-0.22293 0.019,0.002 0.12777,0.01 0.24149,0.0166 l 0.20678,0.0122 0.0725,0.22243 0.0725,0.22242 -0.0678,0.0128 c -0.0887,0.0166 -0.26676,0.014 -0.47181,-0.007 z m 1.30783,-0.12594 c -0.28155,-0.0689 -0.51571,-0.12905 -0.52036,-0.13369 -0.005,-0.005 0.0885,-0.15628 0.207,-0.33695 0.1185,-0.18067 0.23838,-0.36447 0.2664,-0.40844 l 0.051,-0.0799 0.0646,0.12832 c 0.0355,0.0706 0.0588,0.13477 0.0517,0.14265 -0.007,0.008 -0.003,0.009 0.008,0.002 0.0115,-0.006 0.0259,7e-4 0.0319,0.0162 0.0279,0.0727 0.50294,-0.3283 0.704,-0.59441 0.059,-0.0781 0.11551,-0.148 0.12563,-0.15543 0.0101,-0.007 0.0123,-0.0136 0.005,-0.0138 -0.007,-1.3e-4 0.0106,-0.0396 0.0401,-0.0876 0.14722,-0.23931 0.26501,-0.62542 0.29503,-0.96703 0.0883,-1.00541 -0.50809,-1.97777 -1.4482,-2.36105 -0.27387,-0.11165 -0.47695,-0.1537 -0.79475,-0.16454 -0.39103,-0.0133 -0.70476,0.0427 -1.00876,0.18022 -0.0643,0.0291 -0.12641,0.0476 -0.1379,0.041 -0.0115,-0.006 -0.0146,-0.005 -0.007,0.003 0.007,0.008 -0.0275,0.038 -0.0782,0.0657 -0.0814,0.0445 -0.22292,0.1421 -0.3701,0.25519 l -0.0483,0.0371 -0.14941,-0.16591 c -0.0822,-0.0912 -0.14943,-0.17287 -0.14943,-0.1814 0,-0.0236 0.26707,-0.22508 0.42749,-0.32247 0.26403,-0.16028 0.59904,-0.28573 0.94233,-0.35286 0.11841,-0.0232 0.257,-0.0325 0.48725,-0.0329 0.36161,-6.2e-4 0.60268,0.0365 0.8966,0.1381 0.21795,0.0753 0.5779,0.25362 0.56246,0.2786 -0.007,0.0114 -0.003,0.0144 0.008,0.007 0.0254,-0.0157 0.24442,0.13868 0.42315,0.29808 0.32743,0.29203 0.61745,0.73121 0.76515,1.15867 0.28334,0.82009 0.1766,1.73244 -0.28643,2.44817 -0.1184,0.18301 -0.42013,0.54753 -0.42013,0.50756 0,-0.008 -0.0219,0.012 -0.0486,0.0438 -0.0527,0.0626 -0.27847,0.23926 -0.41109,0.32158 -0.0455,0.0283 -0.0847,0.0529 -0.0871,0.0548 -0.002,0.002 0.0369,0.0811 0.0873,0.17593 0.0505,0.0949 0.0917,0.17496 0.0917,0.17796 0,0.0141 -0.10036,-0.007 -0.57627,-0.12392 z m -2.21553,-0.13673 c -0.15962,-0.0777 -0.46267,-0.26058 -0.46267,-0.27922 0,-0.0165 0.26097,-0.37399 0.27294,-0.37395 0.006,2e-5 0.0617,0.0338 0.12238,0.0752 0.0607,0.0413 0.18065,0.10879 0.26661,0.14999 0.086,0.0412 0.15873,0.0767 0.16173,0.079 0.0102,0.007 -0.16548,0.43138 -0.17877,0.43138 -0.007,0 -0.0893,-0.037 -0.18222,-0.0823 z m -1.00389,-0.80924 c -0.0384,-0.0469 -0.0621,-0.092 -0.0546,-0.10412 0.008,-0.0126 0.005,-0.0164 -0.006,-0.009 -0.0351,0.0217 -0.29981,-0.43787 -0.26794,-0.4653 0.0371,-0.032 0.37767,-0.2601 0.3804,-0.25484 0.002,0.003 0.0264,0.0555 0.0549,0.11617 0.059,0.12552 0.13455,0.24986 0.23856,0.39274 0.0695,0.0955 0.0706,0.0995 0.0375,0.13003 -0.0188,0.0173 -0.0973,0.0868 -0.1744,0.15442 l -0.14015,0.12295 z m -0.49436,-0.99775 c -0.0372,-0.0635 -0.1044,-0.54202 -0.1044,-0.74398 0,-0.0763 0.005,-0.0901 0.0291,-0.0808 0.016,0.006 0.12357,0.0111 0.23904,0.0111 h 0.20994 l 7e-5,0.1425 c 4e-5,0.0784 0.0127,0.22045 0.0282,0.31573 0.0227,0.14011 0.0236,0.1761 0.005,0.18826 -0.013,0.008 -0.0358,0.0106 -0.0506,0.005 -0.0149,-0.006 -0.0208,-0.004 -0.0131,0.004 0.008,0.008 -0.062,0.0495 -0.15491,0.0929 -0.18812,0.0879 -0.17679,0.084 -0.18786,0.0651 z m 2.46721,-0.45412 c -0.0802,-0.0545 -0.13356,-0.17262 -0.11588,-0.25636 0.0174,-0.0825 0.0735,-0.1671 0.12716,-0.19151 l 0.0464,-0.0212 v -0.84714 -0.84715 l 0.0965,0.006 0.0965,0.006 0.005,0.84172 0.005,0.84172 0.042,0.0159 c 0.0231,0.009 0.053,0.0292 0.0664,0.0454 0.0215,0.0259 0.0936,0.0295 0.59222,0.0295 h 0.56774 v 0.15629 0.15629 h -0.56908 c -0.46129,0 -0.57186,0.005 -0.58378,0.0251 -0.0527,0.09 -0.26855,0.11309 -0.37579,0.0402 z m -2.30118,-0.83673 c -0.099,-0.0283 -0.18475,-0.0561 -0.19049,-0.0618 -0.006,-0.006 0.019,-0.104 0.0551,-0.21833 0.0691,-0.21934 0.20053,-0.50527 0.31272,-0.6805 l 0.0672,-0.10488 0.19303,0.13835 0.19303,0.13835 -0.0527,0.0769 c -0.10837,0.158 -0.25202,0.48311 -0.29596,0.66982 -0.0272,0.1155 -0.0258,0.11529 -0.28184,0.0422 z"
       id="path5478-0-5" />
  </g>
</svg>
